<svg width="21" height="21" viewBox="0 0 21 21" fill="none" xmlns="http://www.w3.org/2000/svg">
<g id="camera-movie 1" clip-path="url(#clip0_175_149)">
<path id="Vector" d="M19.3125 8.94472C18.5908 8.64639 17.7675 8.80889 17.215 9.36139L16.85 9.72639C16.4892 8.85639 15.8417 8.13472 15.0258 7.67805C15.83 6.91805 16.3325 5.84222 16.3325 4.65055C16.3325 2.35305 14.4633 0.483887 12.1658 0.483887C10.8042 0.483887 9.59333 1.14055 8.8325 2.15305C8.07167 1.13972 6.86083 0.483887 5.49917 0.483887C3.2025 0.48472 1.33333 2.35389 1.33333 4.65139C1.33333 5.84222 1.83583 6.91889 2.64 7.67889C1.36417 8.39222 0.5 9.75639 0.5 11.3181V16.3181C0.5 18.6156 2.36917 20.4847 4.66667 20.4847H13C14.7342 20.4847 16.2242 19.4197 16.8508 17.9097L17.2158 18.2747C17.585 18.6439 18.075 18.8397 18.5742 18.8397C18.8225 18.8397 19.0733 18.7914 19.3125 18.6922C20.0342 18.3939 20.5 17.6956 20.5 16.9147V10.7239C20.5 9.94222 20.0333 9.24472 19.3125 8.94639V8.94472ZM12.1667 2.15139C13.545 2.15139 14.6667 3.27305 14.6667 4.65139C14.6667 6.02972 13.545 7.15139 12.1667 7.15139C10.7883 7.15139 9.66667 6.02972 9.66667 4.65139C9.66667 3.27305 10.7883 2.15139 12.1667 2.15139ZM5.5 2.15139C6.87833 2.15139 8 3.27305 8 4.65139C8 6.02972 6.87833 7.15139 5.5 7.15139C4.12167 7.15139 3 6.02972 3 4.65139C3 3.27305 4.12167 2.15139 5.5 2.15139ZM15.5 16.3181C15.5 17.6964 14.3783 18.8181 13 18.8181H4.66667C3.28833 18.8181 2.16667 17.6964 2.16667 16.3181V11.3181C2.16667 9.93972 3.28833 8.81806 4.66667 8.81806H13C14.3783 8.81806 15.5 9.93972 15.5 11.3181V16.3181ZM18.8333 16.9131C18.8333 17.0556 18.7467 17.1214 18.6742 17.1514C18.6025 17.1814 18.495 17.1964 18.3933 17.0956L17.1667 15.8689V11.7672L18.3933 10.5406C18.495 10.4397 18.6025 10.4547 18.6742 10.4847C18.7467 10.5147 18.8333 10.5806 18.8333 10.7231V16.9131Z" fill="white"/>
</g>
<defs>
<clipPath id="clip0_175_149">
<rect width="20" height="20" fill="white" transform="translate(0.5 0.484375)"/>
</clipPath>
</defs>
</svg>
