<svg width="25" height="24" viewBox="0 0 25 24" fill="none" xmlns="http://www.w3.org/2000/svg">
<g id="customize-computer 1" clip-path="url(#clip0_175_57)">
<path id="Vector" d="M15.488 12.7259C15.646 14.5059 14.248 15.9999 12.5 15.9999H8.522C7.831 15.9999 7.341 15.3339 7.547 14.6749C8.049 13.0659 9.483 10.5099 11.787 10.0669C13.542 9.7289 15.33 10.9459 15.488 12.7259ZM23.5 8.9999C22.947 8.9999 22.5 9.44691 22.5 9.9999V14.9999C22.5 16.6539 21.154 17.9999 19.5 17.9999H5.5C3.846 17.9999 2.5 16.6539 2.5 14.9999V6.9999C2.5 5.3459 3.846 3.9999 5.5 3.9999H13.5C14.053 3.9999 14.5 3.5529 14.5 2.9999C14.5 2.4469 14.053 1.9999 13.5 1.9999H5.5C2.743 1.9999 0.5 4.2429 0.5 6.9999V14.9999C0.5 17.7569 2.743 19.9999 5.5 19.9999H11.5V21.9999H8.5C7.948 21.9999 7.5 22.4469 7.5 22.9999C7.5 23.5529 7.948 23.9999 8.5 23.9999H16.5C17.053 23.9999 17.5 23.5529 17.5 22.9999C17.5 22.4469 17.053 21.9999 16.5 21.9999H13.5V19.9999H19.5C22.257 19.9999 24.5 17.7569 24.5 14.9999V9.9999C24.5 9.44691 24.053 8.9999 23.5 8.9999ZM14.086 8.68491C14.093 8.68791 14.101 8.6909 14.108 8.6949C14.492 8.8629 14.938 8.7539 15.217 8.4409L20.858 2.3109C21.206 1.9219 21.804 1.8889 22.192 2.2369C22.205 2.2489 22.217 2.2599 22.23 2.2729C22.599 2.6409 22.599 3.2379 22.231 3.6069C22.231 3.6069 22.231 3.6069 22.23 3.6079L16.386 9.2939C16.055 9.6249 16.008 10.1379 16.263 10.5309C16.267 10.5369 16.271 10.5429 16.274 10.5479C16.613 11.0769 17.352 11.1539 17.796 10.7099L23.64 5.0249C24.788 3.8749 24.788 2.0119 23.64 0.861905C22.491 -0.288095 20.628 -0.289095 19.478 0.859905C19.439 0.898905 13.717 7.1159 13.717 7.1159C13.262 7.6269 13.458 8.41391 14.086 8.68491Z" fill="#8468F5"/>
</g>
<defs>
<clipPath id="clip0_175_57">
<rect width="24" height="24" fill="white" transform="translate(0.5)"/>
</clipPath>
</defs>
</svg>
