<svg width="25" height="24" viewBox="0 0 25 24" fill="none" xmlns="http://www.w3.org/2000/svg">
<g id="heart-partner-handshake (3) 1" clip-path="url(#clip0_175_47)">
<path id="Vector" d="M24.5 8.00002C24.5 9.06402 24.244 10.205 23.738 11.392C23.576 11.772 23.207 12.001 22.818 12.001C22.687 12.001 22.554 11.975 22.426 11.92C21.917 11.704 21.681 11.116 21.898 10.608C22.297 9.67002 22.5 8.79302 22.5 8.00002C22.5 5.29002 20.439 3.00002 18 3.00002C15.765 3.00002 14.492 3.90502 13.634 4.69402L9.81 8.24302C9.457 8.59702 9.373 9.19202 9.647 9.57302C9.826 9.82202 10.089 9.97202 10.386 9.99602C10.681 10.023 10.967 9.91502 11.174 9.70602L15.347 5.71102C15.743 5.33002 16.378 5.34302 16.761 5.74202C17.143 6.14102 17.129 6.77402 16.73 7.15602L15.492 8.34102L20.239 12.507C21.351 13.483 21.625 15.122 20.876 16.319C20.415 17.055 19.662 17.55 18.811 17.675C18.753 17.683 18.696 17.69 18.638 17.695C18.634 18.21 18.497 18.72 18.216 19.17C17.755 19.906 17.002 20.401 16.151 20.526C15.966 20.552 15.782 20.563 15.598 20.554C15.544 20.936 15.414 21.308 15.203 21.645C14.742 22.381 13.999 23.032 12.711 23.032C12.004 23.032 11.318 22.777 10.78 22.304L7.676 19.52C4.401 16.56 0.5 12.161 0.5 8.00002C0.5 4.14002 3.416 1.00002 7 1.00002C7.826 1.00002 8.633 1.16802 9.397 1.50002C9.904 1.72002 10.137 2.30902 9.917 2.81502C9.697 3.32102 9.108 3.55302 8.602 3.33502C8.09 3.11302 7.551 3.00102 6.999 3.00102C4.56 3.00102 2.499 5.29102 2.499 8.00102C2.499 10.675 4.812 14.238 9.014 18.035L12.108 20.809C12.305 20.982 12.578 21.062 12.848 21.023C13.122 20.983 13.357 20.828 13.508 20.585C13.738 20.216 13.624 19.668 13.247 19.338L10.04 16.289C9.641 15.909 9.624 15.277 10.003 14.876C10.383 14.476 11.015 14.459 11.416 14.837L15.138 18.351C15.317 18.507 15.594 18.589 15.86 18.547C16.134 18.507 16.369 18.351 16.52 18.109C16.75 17.74 16.636 17.192 16.259 16.861L12.699 13.638C12.291 13.269 12.258 12.638 12.626 12.229C12.993 11.82 13.624 11.784 14.035 12.15L17.777 15.48C17.977 15.656 18.251 15.738 18.52 15.696C18.794 15.656 19.029 15.5 19.18 15.258C19.41 14.889 19.296 14.341 18.919 14.01L14.041 9.72902L12.571 11.136C11.964 11.744 11.107 12.06 10.223 11.99C9.345 11.919 8.542 11.464 8.022 10.741C7.177 9.56702 7.348 7.87402 8.42 6.80202L12.275 3.22402C13.317 2.26702 15.039 0.999023 17.998 0.999023C21.582 0.999023 24.498 4.13902 24.498 7.99902L24.5 8.00002Z" fill="#8468F5"/>
</g>
<defs>
<clipPath id="clip0_175_47">
<rect width="24" height="24" fill="white" transform="translate(0.5)"/>
</clipPath>
</defs>
</svg>
