<svg width="21" height="21" viewBox="0 0 21 21" fill="none" xmlns="http://www.w3.org/2000/svg">
<g id="magic-wand (1) 1" clip-path="url(#clip0_175_153)">
<path id="Vector" d="M15.5 8.03787C15.5001 7.70267 15.4339 7.37076 15.3052 7.06126C15.1765 6.75176 14.9878 6.47079 14.75 6.23454C14.2634 5.77025 13.6167 5.5112 12.9442 5.5112C12.2716 5.5112 11.6249 5.77025 11.1383 6.23454L1.24999 16.1254C0.798669 16.6093 0.552855 17.2496 0.564351 17.9112C0.575846 18.5728 0.843754 19.2041 1.31161 19.6721C1.77947 20.1401 2.41073 20.4081 3.07235 20.4198C3.73398 20.4314 4.37428 20.1857 4.85832 19.7345L14.75 9.84371C14.9881 9.60721 15.1771 9.32584 15.3058 9.01588C15.4345 8.70592 15.5005 8.37351 15.5 8.03787ZM3.67999 18.5579C3.51153 18.7185 3.28772 18.808 3.05499 18.808C2.82225 18.808 2.59845 18.7185 2.42999 18.5579C2.2645 18.392 2.17156 18.1672 2.17156 17.9329C2.17156 17.6985 2.2645 17.4738 2.42999 17.3079L8.90415 10.8329L10.1583 12.087L3.67999 18.5579ZM13.5733 8.66454L11.3333 10.9054L10.0833 9.65121L12.3242 7.41121C12.404 7.31995 12.5018 7.24607 12.6114 7.19414C12.721 7.14222 12.8401 7.11334 12.9613 7.10932C13.0825 7.1053 13.2033 7.12621 13.3161 7.17075C13.4289 7.2153 13.5313 7.28253 13.6171 7.36829C13.7028 7.45405 13.7701 7.5565 13.8146 7.6693C13.8592 7.7821 13.8801 7.90284 13.876 8.02406C13.872 8.14527 13.8431 8.26436 13.7912 8.37396C13.7393 8.48356 13.6654 8.58132 13.5742 8.66121L13.5733 8.66454ZM4.55249 2.8637L5.84415 2.49537L6.21249 1.2037C6.27182 0.996441 6.39704 0.814135 6.56919 0.684354C6.74134 0.554573 6.95106 0.484375 7.16665 0.484375C7.38224 0.484375 7.59197 0.554573 7.76412 0.684354C7.93627 0.814135 8.06148 0.996441 8.12082 1.2037L8.48915 2.49537L9.78082 2.8637C9.98808 2.92304 10.1704 3.04825 10.3002 3.2204C10.43 3.39255 10.5001 3.60228 10.5001 3.81787C10.5001 4.03346 10.43 4.24319 10.3002 4.41534C10.1704 4.58749 9.98808 4.7127 9.78082 4.77204L8.48915 5.14037L8.12082 6.43204C8.06148 6.6393 7.93627 6.82161 7.76412 6.95139C7.59197 7.08117 7.38224 7.15137 7.16665 7.15137C6.95106 7.15137 6.74134 7.08117 6.56919 6.95139C6.39704 6.82161 6.27182 6.6393 6.21249 6.43204L5.84415 5.14037L4.55249 4.77204C4.34522 4.7127 4.16292 4.58749 4.03314 4.41534C3.90336 4.24319 3.83316 4.03346 3.83316 3.81787C3.83316 3.60228 3.90336 3.39255 4.03314 3.2204C4.16292 3.04825 4.34522 2.92304 4.55249 2.8637ZM19.7808 14.772L18.4892 15.1404L18.1208 16.432C18.0615 16.6393 17.9363 16.8216 17.7641 16.9514C17.592 17.0812 17.3822 17.1514 17.1667 17.1514C16.9511 17.1514 16.7413 17.0812 16.5692 16.9514C16.397 16.8216 16.2718 16.6393 16.2125 16.432L15.8442 15.1404L14.5525 14.772C14.3452 14.7127 14.1629 14.5875 14.0331 14.4153C13.9034 14.2432 13.8332 14.0335 13.8332 13.8179C13.8332 13.6023 13.9034 13.3926 14.0331 13.2204C14.1629 13.0483 14.3452 12.923 14.5525 12.8637L15.8442 12.4954L16.2125 11.2037C16.2718 10.9964 16.397 10.8141 16.5692 10.6844C16.7413 10.5546 16.9511 10.4844 17.1667 10.4844C17.3822 10.4844 17.592 10.5546 17.7641 10.6844C17.9363 10.8141 18.0615 10.9964 18.1208 11.2037L18.4892 12.4954L19.7808 12.8637C19.9881 12.923 20.1704 13.0483 20.3002 13.2204C20.43 13.3926 20.5001 13.6023 20.5001 13.8179C20.5001 14.0335 20.43 14.2432 20.3002 14.4153C20.1704 14.5875 19.9881 14.7127 19.7808 14.772ZM15.2958 2.56787L16.4258 2.24537L16.75 1.1137C16.8027 0.933552 16.9125 0.775347 17.0627 0.662798C17.2129 0.550249 17.3956 0.489417 17.5833 0.489417C17.771 0.489417 17.9537 0.550249 18.1039 0.662798C18.2542 0.775347 18.3639 0.933552 18.4167 1.1137L18.7392 2.2437L19.8692 2.5662C20.0493 2.61896 20.2075 2.72868 20.3201 2.87892C20.4326 3.02916 20.4934 3.21182 20.4934 3.39954C20.4934 3.58726 20.4326 3.76992 20.3201 3.92016C20.2075 4.07039 20.0493 4.18011 19.8692 4.23287L18.7392 4.55537L18.4167 5.68787C18.3639 5.86802 18.2542 6.02623 18.1039 6.13878C17.9537 6.25133 17.771 6.31216 17.5833 6.31216C17.3956 6.31216 17.2129 6.25133 17.0627 6.13878C16.9125 6.02623 16.8027 5.86802 16.75 5.68787L16.4275 4.5587L15.2958 4.23454C15.1157 4.18178 14.9575 4.07206 14.8449 3.92182C14.7324 3.77159 14.6715 3.58892 14.6715 3.4012C14.6715 3.21349 14.7324 3.03082 14.8449 2.88058C14.9575 2.73035 15.1157 2.62063 15.2958 2.56787Z" fill="white"/>
</g>
<defs>
<clipPath id="clip0_175_153">
<rect width="20" height="20" fill="white" transform="translate(0.5 0.484375)"/>
</clipPath>
</defs>
</svg>
