<svg width="18" height="19" viewBox="0 0 18 19" fill="none" xmlns="http://www.w3.org/2000/svg">
<g id="menu-burger (2) 1">
<g id="Group">
<path id="Vector" d="M16.875 8.375H1.125C0.503684 8.375 0 8.87868 0 9.5C0 10.1213 0.503684 10.625 1.125 10.625H16.875C17.4963 10.625 18 10.1213 18 9.5C18 8.87868 17.4963 8.375 16.875 8.375Z" fill="black"/>
<path id="Vector_2" d="M1.125 5.375H16.875C17.4963 5.375 18 4.87132 18 4.25C18 3.62868 17.4963 3.125 16.875 3.125H1.125C0.503684 3.125 0 3.62868 0 4.25C0 4.87132 0.503684 5.375 1.125 5.375Z" fill="black"/>
<path id="Vector_3" d="M16.875 13.625H1.125C0.503684 13.625 0 14.1287 0 14.75C0 15.3713 0.503684 15.875 1.125 15.875H16.875C17.4963 15.875 18 15.3713 18 14.75C18 14.1287 17.4963 13.625 16.875 13.625Z" fill="black"/>
</g>
</g>
</svg>
