<svg width="24" height="25" viewBox="0 0 24 25" fill="none" xmlns="http://www.w3.org/2000/svg">
<g id="message-quote (1) 1" clip-path="url(#clip0_175_113)">
<path id="Vector" d="M11 8.48438V11.9844C11 14.1904 9.20602 15.9844 7.00002 15.9844C6.44702 15.9844 6.00002 15.5374 6.00002 14.9844C6.00002 14.4314 6.44702 13.9844 7.00002 13.9844C8.10302 13.9844 9.00002 13.0874 9.00002 11.9844H7.50002C6.67202 11.9844 6.00002 11.3124 6.00002 10.4844V8.98438C6.00002 7.87937 6.89502 6.98438 8.00002 6.98438H9.50002C10.328 6.98438 11 7.65637 11 8.48438ZM16.5 6.98438H15C13.895 6.98438 13 7.87937 13 8.98438V10.4844C13 11.3124 13.672 11.9844 14.5 11.9844H16C16 13.0874 15.103 13.9844 14 13.9844C13.447 13.9844 13 14.4314 13 14.9844C13 15.5374 13.447 15.9844 14 15.9844C16.206 15.9844 18 14.1904 18 11.9844V8.48438C18 7.65637 17.328 6.98438 16.5 6.98438ZM24 4.98438V16.9844C24 19.1904 22.206 20.9844 20 20.9844H17.147L13.3 24.1644C12.939 24.4864 12.476 24.6484 12.008 24.6484C11.532 24.6484 11.053 24.4804 10.671 24.1404L6.92202 20.9844H3.99902C1.79302 20.9844 -0.000976562 19.1904 -0.000976562 16.9844V4.98438C2.34377e-05 2.77837 1.79402 0.984375 4.00002 0.984375H20C22.206 0.984375 24 2.77837 24 4.98438ZM22 4.98438C22 3.88137 21.103 2.98438 20 2.98438H4.00002C2.89702 2.98438 2.00002 3.88137 2.00002 4.98438V16.9844C2.00002 18.0874 2.89702 18.9844 4.00002 18.9844H7.28802C7.52302 18.9844 7.75202 19.0674 7.93302 19.2194L11.981 22.6284L16.152 19.2134C16.331 19.0654 16.556 18.9844 16.789 18.9844H20.001C21.104 18.9844 22.001 18.0874 22.001 16.9844L22 4.98438Z" fill="#8468F5"/>
</g>
<defs>
<clipPath id="clip0_175_113">
<rect width="24" height="24" fill="white" transform="translate(0 0.984375)"/>
</clipPath>
</defs>
</svg>
