<svg width="25" height="24" viewBox="0 0 25 24" fill="none" xmlns="http://www.w3.org/2000/svg">
<g id="mobile-hand 1" clip-path="url(#clip0_175_52)">
<path id="Vector" d="M20 0H14C11.519 0 9.5 2.019 9.5 4.5V8C9.5 8.552 9.947 9 10.5 9C11.053 9 11.5 8.552 11.5 8V4.5C11.5 3.122 12.621 2 14 2H20C21.379 2 22.5 3.122 22.5 4.5V14H15.486C15.455 13.148 15.091 12.312 14.393 11.718C13.209 10.713 11.438 10.731 10.268 11.766L5.83 15.766C5.42 16.136 5.388 16.768 5.757 17.178C6.128 17.588 6.759 17.62 7.17 17.251L11.6 13.258C12.027 12.883 12.668 12.878 13.098 13.242C13.577 13.65 13.636 14.372 13.168 14.931L9.208 20.662C8.745 21.333 8.5 22.12 8.5 22.999C8.5 23.551 8.947 23.967 9.5 23.967C10.053 23.967 10.5 23.487 10.5 22.935C10.5 22.527 10.622 22.134 10.854 21.798L11.332 21.105C12.102 21.677 13.022 21.999 14.001 21.999H20.001C22.482 21.999 24.501 19.98 24.501 17.499V4.5C24.501 2.019 22.481 0 20 0ZM22.5 17.5C22.5 18.878 21.379 20 20 20H14C13.434 20 12.904 19.804 12.467 19.461C12.58 19.297 14.744 16.161 14.854 16H22.5V17.5ZM15.5 18C15.5 17.448 15.947 17 16.5 17H17.5C18.053 17 18.5 17.448 18.5 18C18.5 18.552 18.053 19 17.5 19H16.5C15.947 19 15.5 18.552 15.5 18ZM7.207 8.707L4.843 11.071C3.332 12.582 2.5 14.592 2.5 16.728V23C2.5 23.552 2.053 24 1.5 24C0.947 24 0.5 23.552 0.5 23V16.728C0.5 14.057 1.54 11.546 3.429 9.657L5.793 7.293C6.184 6.902 6.816 6.902 7.207 7.293C7.598 7.684 7.598 8.317 7.207 8.707Z" fill="#8468F5"/>
</g>
<defs>
<clipPath id="clip0_175_52">
<rect width="24" height="24" fill="white" transform="translate(0.5)"/>
</clipPath>
</defs>
</svg>
