<svg width="18" height="19" viewBox="0 0 18 19" fill="none" xmlns="http://www.w3.org/2000/svg">
<g id="mouse-pointer-heart (2) 1" clip-path="url(#clip0_1_807)">
<path id="Vector" d="M8.8483 5.73596C8.2498 5.83121 7.65505 5.40071 7.5613 4.80071C7.4413 4.04321 6.98155 3.40421 6.2998 3.04646C5.22505 2.45096 3.44755 2.78171 2.70805 3.90146C0.872047 6.65846 5.04805 11.2125 7.8043 13.4685C8.27905 13.8577 8.3773 14.5732 7.99705 15.0547C7.59055 15.576 6.84205 15.6405 6.3628 15.1957C2.0293 11.6482 -1.71245 6.48071 0.836047 2.65421C2.1808 0.589461 5.28355 -0.0810392 7.34455 1.05371C7.85305 1.31996 8.29555 1.66946 8.6638 2.08046C9.03205 1.66046 9.4753 1.30496 9.9868 1.03721C12.0088 -0.0795391 15.0935 0.617961 16.4135 2.65346C17.21 3.84971 17.8408 5.90171 16.319 8.88671C16.0355 9.44546 15.347 9.65696 14.8055 9.37721C14.252 9.09521 14.0323 8.41796 14.3143 7.86371C15.1505 6.22346 15.2248 4.92746 14.5408 3.90146C13.8223 2.80871 12.0673 2.44496 11.0308 3.03071C10.3603 3.38171 9.90655 4.02671 9.78355 4.80071C9.7048 5.27396 9.3208 5.65571 8.8483 5.73596ZM17.6713 16.5795L15.8705 14.7787L17.5865 13.9207C17.8438 13.7917 18.005 13.5255 17.9998 13.236C17.9945 12.9465 17.8235 12.687 17.5603 12.567C17.5603 12.567 11.0098 9.58946 10.9865 9.58196C10.4405 9.39746 9.84805 9.53246 9.44005 9.94121C9.0313 10.3492 8.89405 10.9417 9.10855 11.5545L12.0665 18.0607C12.1858 18.324 12.446 18.495 12.7355 18.5002H12.7498C13.0333 18.5002 13.2935 18.3397 13.421 18.0855L14.279 16.3695L16.0798 18.1702C16.5193 18.609 17.2318 18.609 17.6713 18.1702C18.1108 17.7307 18.1108 17.019 17.6713 16.5795Z" fill="black"/>
</g>
<defs>
<clipPath id="clip0_1_807">
<rect width="18" height="18" fill="white" transform="translate(0 0.5)"/>
</clipPath>
</defs>
</svg>
