<svg width="41" height="41" viewBox="0 0 41 41" fill="none" xmlns="http://www.w3.org/2000/svg">
<g id="paper-plane 1" clip-path="url(#clip0_175_127)">
<path id="Vector" d="M39.0318 2.45436C38.4342 1.84957 37.6908 1.40912 36.8733 1.17555C36.0559 0.941987 35.192 0.923206 34.3651 1.12102L7.69845 6.73769C6.16275 6.9483 4.71634 7.58349 3.52212 8.57171C2.3279 9.55994 1.43331 10.862 0.939077 12.3311C0.444847 13.8003 0.370614 15.3783 0.724739 16.8874C1.07886 18.3965 1.84728 19.7767 2.94345 20.8727L5.80679 23.7344C5.96176 23.8893 6.08466 24.0733 6.16845 24.2757C6.25225 24.4782 6.29529 24.6952 6.29512 24.9144V30.1944C6.2988 30.9367 6.4697 31.6688 6.79512 32.336L6.78179 32.3477L6.82512 32.391C7.31347 33.3729 8.11109 34.167 9.09512 34.651L9.13845 34.6944L9.15012 34.681C9.81739 35.0064 10.5494 35.1773 11.2918 35.181H16.5718C17.0135 35.1807 17.4374 35.3557 17.7501 35.6677L20.6118 38.5294C21.3793 39.3054 22.2929 39.9219 23.2998 40.3432C24.3066 40.7646 25.387 40.9825 26.4785 40.9844C27.388 40.9832 28.2914 40.8346 29.1535 40.5444C30.6092 40.0663 31.9024 39.191 32.8872 38.0172C33.8719 36.8434 34.5091 35.4177 34.7268 33.901L40.3518 7.17602C40.5599 6.34209 40.5476 5.46839 40.3162 4.64063C40.0848 3.81287 39.6422 3.05947 39.0318 2.45436ZM8.16679 21.381L5.30179 18.5194C4.63465 17.8683 4.16707 17.0404 3.95393 16.133C3.74079 15.2255 3.79092 14.276 4.09845 13.396C4.39661 12.4932 4.94779 11.6951 5.68645 11.0965C6.4251 10.4979 7.32014 10.124 8.26512 10.0194L34.6668 4.46102L9.62512 29.506V24.9144C9.62764 24.2583 9.50006 23.6082 9.24974 23.0017C8.99942 22.3952 8.63134 21.8444 8.16679 21.381ZM31.4518 33.331C31.3238 34.2516 30.9418 35.1183 30.3486 35.8338C29.7554 36.5493 28.9746 37.0853 28.0937 37.3816C27.2128 37.678 26.2667 37.7229 25.3617 37.5114C24.4566 37.2999 23.6285 36.8404 22.9701 36.1844L20.1035 33.3177C19.6407 32.8524 19.0904 32.4835 18.4842 32.2324C17.878 31.9812 17.228 31.8527 16.5718 31.8544H11.9801L37.0251 6.81769L31.4518 33.331Z" fill="white"/>
</g>
<defs>
<clipPath id="clip0_175_127">
<rect width="40" height="40" fill="white" transform="translate(0.5 0.984375)"/>
</clipPath>
</defs>
</svg>
