<svg width="47" height="47" viewBox="0 0 47 47" fill="none" xmlns="http://www.w3.org/2000/svg">
<g id="rocket-lunch 1" clip-path="url(#clip0_222_549)">
<path id="Vector" d="M3.67974 35.0111C1.97828 37.3604 0.75711 40.0223 0.0861968 42.8444C-0.0419602 43.4062 -0.0254469 43.9914 0.134191 44.5451C0.293828 45.0989 0.591368 45.603 0.998954 46.0104C1.40654 46.4178 1.91084 46.7151 2.46464 46.8745C3.01844 47.0338 3.60362 47.0501 4.16541 46.9217C6.98315 46.2497 9.64093 45.0293 11.987 43.3301C13.0902 42.2285 13.7105 40.7337 13.7116 39.1747C13.7127 37.6157 13.0945 36.1201 11.9929 35.0169C10.8913 33.9138 9.39653 33.2934 7.83752 33.2923C6.2785 33.2912 4.78291 33.9095 3.67974 35.0111ZM9.21791 40.5512C7.6395 41.5621 5.92503 42.3429 4.12624 42.8699C4.65397 41.0714 5.43467 39.357 6.44491 37.7782C6.81425 37.4215 7.30893 37.2241 7.8224 37.2285C8.33587 37.233 8.82704 37.439 9.19013 37.8021C9.55322 38.1651 9.75918 38.6563 9.76364 39.1698C9.7681 39.6833 9.57071 40.1779 9.21399 40.5473L9.21791 40.5512ZM35.25 16.6458C35.25 17.9443 34.7342 19.1896 33.8161 20.1077C32.8979 21.0258 31.6527 21.5417 30.3542 21.5417C29.0557 21.5417 27.8105 21.0258 26.8923 20.1077C25.9742 19.1896 25.4584 17.9443 25.4584 16.6458C25.4584 15.3474 25.9742 14.1021 26.8923 13.1839C27.8105 12.2658 29.0557 11.75 30.3542 11.75C31.6527 11.75 32.8979 12.2658 33.8161 13.1839C34.7342 14.1021 35.25 15.3474 35.25 16.6458ZM41.0702 -1.33674e-05C36.4098 -0.0277172 31.8058 1.01896 27.6155 3.05876C23.4251 5.09857 19.7613 8.07662 16.9083 11.7617C13.7968 11.8693 10.7449 12.6461 7.96066 14.0393C4.73179 15.5261 2.09592 18.0544 0.475905 21.2185C0.0957328 22.1013 -0.0585829 23.0648 0.0268925 24.0221C0.112368 24.9795 0.434943 25.9004 0.965488 26.7019C1.5011 27.5229 2.23309 28.1974 3.09516 28.6642C3.95723 29.1309 4.92212 29.3753 5.90245 29.375H10.7709C12.586 29.3837 14.3243 30.1087 15.6078 31.3922C16.8913 32.6757 17.6163 34.414 17.625 36.2292V41.0976C17.6243 42.0775 17.8681 43.0422 18.3341 43.9042C18.8002 44.7663 19.4739 45.4985 20.2942 46.0345C21.0957 46.5651 22.0166 46.8876 22.974 46.9731C23.9313 47.0586 24.8948 46.9043 25.7776 46.5241C28.9417 44.9041 31.47 42.2682 32.9568 39.0394C34.35 36.2551 35.1268 33.2033 35.2344 30.0917C38.9254 27.2315 41.907 23.5586 43.9476 19.3585C45.9882 15.1585 47.0327 10.5444 47 5.87499C46.9977 5.0995 46.8424 4.33209 46.5429 3.61677C46.2434 2.90145 45.8056 2.25227 45.2547 1.70647C44.7039 1.16067 44.0506 0.728974 43.3326 0.436139C42.6145 0.143303 41.8457 -0.00491354 41.0702 -1.33674e-05ZM8.51095 25.4583H5.90245C5.57129 25.4609 5.24489 25.3794 4.95378 25.2215C4.66267 25.0636 4.41635 24.8345 4.23786 24.5555C4.06252 24.2964 3.95534 23.9973 3.92624 23.6858C3.89715 23.3743 3.94708 23.0605 4.07141 22.7734C5.33326 20.4609 7.31566 18.6236 9.71728 17.5408C10.9582 16.9186 12.2682 16.4453 13.6202 16.1308C11.6737 19.1003 9.96529 22.2192 8.51095 25.4583ZM29.4651 37.2827C28.3823 39.6837 26.5459 41.666 24.2344 42.9286C23.947 43.0531 23.6329 43.1031 23.3211 43.074C23.0092 43.0449 22.7098 42.9377 22.4504 42.7622C22.1714 42.5837 21.9423 42.3373 21.7844 42.0462C21.6265 41.7551 21.545 41.4287 21.5476 41.0976V38.4891C24.7867 37.0347 27.9056 35.3263 30.8751 33.3798C30.5587 34.732 30.0834 36.0421 29.4592 37.2827H29.4651ZM29.7295 29.4102C27.0795 31.2508 24.2819 32.8693 21.3654 34.2493C20.9672 32.1109 19.9309 30.1433 18.3928 28.6052C16.8548 27.0672 14.8871 26.0309 12.7488 25.6326C14.1298 22.7187 15.7489 19.9239 17.5898 17.2764C24.1854 8.07615 31.02 4.20453 41.125 3.91665C41.6351 3.91645 42.125 4.11523 42.4907 4.47072C42.8565 4.8262 43.0691 5.31033 43.0834 5.82015C42.7955 15.98 38.9239 22.8146 29.7236 29.4102H29.7295Z" fill="white"/>
</g>
<defs>
<clipPath id="clip0_222_549">
<rect width="47" height="47" fill="white"/>
</clipPath>
</defs>
</svg>
