<svg width="19" height="21" viewBox="0 0 19 21" fill="none" xmlns="http://www.w3.org/2000/svg">
<path id="Vector" d="M18.3028 1.2189C18.019 0.916495 17.6658 0.696263 17.2774 0.579477C16.8891 0.462692 16.4787 0.453302 16.0859 0.552213L3.41754 3.36062C2.68799 3.46592 2.00085 3.78352 1.43352 4.27765C0.866194 4.77178 0.441205 5.4228 0.206414 6.15741C-0.0283759 6.89201 -0.063641 7.68103 0.10459 8.43559C0.272822 9.19015 0.637868 9.88029 1.15862 10.4283L2.51888 11.8592C2.5925 11.9366 2.65089 12.0286 2.6907 12.1299C2.7305 12.2311 2.75095 12.3396 2.75087 12.4492V15.0892C2.75262 15.4604 2.83381 15.8265 2.9884 16.1601L2.98207 16.1659L3.00265 16.1876C3.23465 16.6786 3.61357 17.0756 4.08105 17.3176L4.10163 17.3393L4.10717 17.3326C4.42417 17.4953 4.77192 17.5808 5.1246 17.5826H7.63293C7.84279 17.5825 8.04413 17.67 8.19271 17.826L9.55219 19.2568C9.91682 19.6449 10.3508 19.9531 10.8291 20.1638C11.3075 20.3745 11.8207 20.4834 12.3392 20.4844C12.7713 20.4838 13.2005 20.4095 13.61 20.2644C14.3016 20.0254 14.9159 19.5877 15.3838 19.0008C15.8516 18.4138 16.1543 17.701 16.2577 16.9426L18.9299 3.57979C19.0288 3.16281 19.023 2.72595 18.913 2.31206C18.8031 1.89817 18.5928 1.52146 18.3028 1.2189ZM3.64003 10.6825L2.27898 9.2516C1.96204 8.92605 1.73992 8.51212 1.63866 8.05836C1.5374 7.60461 1.56122 7.12987 1.70732 6.68987C1.84896 6.23846 2.11081 5.83937 2.46171 5.54006C2.81262 5.24075 3.23782 5.05381 3.68674 5.00149L16.2292 2.22225L4.33283 14.7451V12.4492C4.33403 12.1211 4.27342 11.7961 4.1545 11.4928C4.03558 11.1896 3.86072 10.9141 3.64003 10.6825ZM14.7019 16.6576C14.6411 17.1179 14.4596 17.5513 14.1778 17.909C13.896 18.2668 13.525 18.5348 13.1066 18.683C12.6881 18.8311 12.2386 18.8536 11.8087 18.7479C11.3787 18.6421 10.9853 18.4123 10.6725 18.0843L9.3107 16.6509C9.09088 16.4183 8.82941 16.2339 8.54143 16.1083C8.25344 15.9827 7.94466 15.9184 7.63293 15.9193H5.4516L17.3496 3.40062L14.7019 16.6576Z" fill="white"/>
</svg>
